<svg xmlns="http://www.w3.org/2000/svg" viewBox="0 0 120 120" width="120" height="120">
  <rect width="120" height="120" rx="24" fill="#0d1728"/>
  <!-- filled cells -->
  <g fill="#4ecdc4">
    <rect x="20" y="20" width="16" height="16" rx="2"/>
    <rect x="40" y="20" width="16" height="16" rx="2"/>
    <rect x="60" y="20" width="16" height="16" rx="2"/>
    <rect x="80" y="20" width="16" height="16" rx="2"/>

    <rect x="20" y="40" width="16" height="16" rx="2"/>
    <rect x="80" y="40" width="16" height="16" rx="2"/>

    <rect x="20" y="60" width="16" height="16" rx="2"/>
    <rect x="40" y="60" width="16" height="16" rx="2"/>
    <rect x="60" y="60" width="16" height="16" rx="2"/>
    <rect x="80" y="60" width="16" height="16" rx="2"/>

    <rect x="20" y="80" width="16" height="16" rx="2"/>
    <rect x="80" y="80" width="16" height="16" rx="2"/>

    <rect x="20" y="100" width="16" height="16" rx="2"/>
    <rect x="40" y="100" width="16" height="16" rx="2"/>
    <rect x="60" y="100" width="16" height="16" rx="2"/>
    <rect x="80" y="100" width="16" height="16" rx="2"/>
  </g>
  <!-- empty cells -->
  <g fill="#1e3048">
    <rect x="40" y="40" width="16" height="16" rx="2"/>
    <rect x="60" y="40" width="16" height="16" rx="2"/>
    <rect x="40" y="80" width="16" height="16" rx="2"/>
    <rect x="60" y="80" width="16" height="16" rx="2"/>
  </g>
</svg>
