<svg xmlns="http://www.w3.org/2000/svg" viewBox="0 0 1200 630" width="1200" height="630">
  <rect width="1200" height="630" fill="#070d17"/>
  <!-- background grid pattern -->
  <g fill="#0d1728" opacity="0.8">
    <rect x="0" y="0" width="1200" height="630"/>
  </g>
  <!-- subtle grid dots -->
  <g fill="#1e3048">
    <rect x="60" y="60" width="12" height="12" rx="2"/>
    <rect x="84" y="60" width="12" height="12" rx="2"/>
    <rect x="108" y="60" width="12" height="12" rx="2"/>
    <rect x="60" y="84" width="12" height="12" rx="2"/>
    <rect x="108" y="84" width="12" height="12" rx="2"/>
    <rect x="60" y="108" width="12" height="12" rx="2"/>
    <rect x="84" y="108" width="12" height="12" rx="2"/>
    <rect x="108" y="108" width="12" height="12" rx="2"/>

    <rect x="1080" y="480" width="12" height="12" rx="2"/>
    <rect x="1104" y="480" width="12" height="12" rx="2"/>
    <rect x="1080" y="504" width="12" height="12" rx="2"/>
    <rect x="1104" y="504" width="12" height="12" rx="2"/>
    <rect x="1080" y="528" width="12" height="12" rx="2"/>
    <rect x="1104" y="528" width="12" height="12" rx="2"/>
  </g>

  <!-- BIG icon mark centered left -->
  <rect x="120" y="185" width="260" height="260" rx="52" fill="#0d1728"/>
  <rect x="120" y="185" width="260" height="260" rx="52" fill="none" stroke="#1e3048" stroke-width="2"/>
  <g fill="#4ecdc4">
    <rect x="158" y="223" width="36" height="36" rx="5"/>
    <rect x="202" y="223" width="36" height="36" rx="5"/>
    <rect x="246" y="223" width="36" height="36" rx="5"/>
    <rect x="290" y="223" width="36" height="36" rx="5"/>
    <rect x="158" y="267" width="36" height="36" rx="5"/>
    <rect x="290" y="267" width="36" height="36" rx="5"/>
    <rect x="158" y="311" width="36" height="36" rx="5"/>
    <rect x="202" y="311" width="36" height="36" rx="5"/>
    <rect x="246" y="311" width="36" height="36" rx="5"/>
    <rect x="290" y="311" width="36" height="36" rx="5"/>
    <rect x="158" y="355" width="36" height="36" rx="5"/>
    <rect x="290" y="355" width="36" height="36" rx="5"/>
    <rect x="158" y="399" width="36" height="36" rx="5"/>
    <rect x="202" y="399" width="36" height="36" rx="5"/>
    <rect x="246" y="399" width="36" height="36" rx="5"/>
    <rect x="290" y="399" width="36" height="36" rx="5"/>
  </g>
  <g fill="#1e3048">
    <rect x="202" y="267" width="36" height="36" rx="5"/>
    <rect x="246" y="267" width="36" height="36" rx="5"/>
    <rect x="202" y="355" width="36" height="36" rx="5"/>
    <rect x="246" y="355" width="36" height="36" rx="5"/>
  </g>

  <!-- Wordmark right side -->
  <text x="450" y="320" font-family="-apple-system,BlinkMacSystemFont,'Helvetica Neue',sans-serif" font-size="96" font-weight="800" fill="#e2f0ff" letter-spacing="-3">nonogramme</text>
  <text x="450" y="400" font-family="-apple-system,BlinkMacSystemFont,'Helvetica Neue',sans-serif" font-size="96" font-weight="800" fill="#4ecdc4" letter-spacing="-3">.com</text>
  <rect x="450" y="420" width="80" height="6" rx="3" fill="#4ecdc4"/>
  <rect x="534" y="420" width="6" height="6" rx="3" fill="#ffd93d"/>
  <text x="450" y="468" font-family="-apple-system,BlinkMacSystemFont,sans-serif" font-size="28" fill="#3d6080" letter-spacing="4" font-weight="500">JEUX DE LOGIQUE GRATUITS</text>
</svg>
